<?xml version="1.0" encoding="iso-8859-1"?>
<!-- Generator: Adobe Illustrator 17.1.0, SVG Export Plug-In . SVG Version: 6.00 Build 0)  -->
<!DOCTYPE svg PUBLIC "-//W3C//DTD SVG 1.1//EN" "http://www.w3.org/Graphics/SVG/1.1/DTD/svg11.dtd">
<svg version="1.1" id="Capa_1" xmlns="http://www.w3.org/2000/svg" xmlns:xlink="http://www.w3.org/1999/xlink" x="0px" y="0px"
	 viewBox="0 0 351 351" style="enable-background:new 0 0 351 351;" xml:space="preserve">
<g>
	<path d="M330.857,79.261h-57.332l-19.127-39.89c-2-4.198-7.015-7.11-11.666-7.11H108.268c-4.651,0-9.666,2.912-11.664,7.109
		L77.475,79.261H20.143C9.114,79.261,0,88.254,0,99.282v162.526c0,11.028,9.114,20.452,20.143,20.452h102.616
		c19.116,22,47.483,36.479,79.099,36.479c31.616,0,59.983-14.479,79.098-36.479h49.902c11.028,0,20.143-9.424,20.143-20.452V99.282
		C351,88.254,341.886,79.261,330.857,79.261z M93,141.261c0,2.761-2.239,5-5,5H45c-2.761,0-5-2.239-5-5v-22c0-2.761,2.239-5,5-5h43
		c2.761,0,5,2.239,5,5V141.261z M201.857,299.287c-47.026,0-85.144-38.119-85.144-85.145c0-47.027,38.118-85.146,85.144-85.146
		c47.024,0,85.144,38.119,85.144,85.146C287.001,261.168,248.882,299.287,201.857,299.287z"/>
	<path d="M201.857,152.018c-34.254,0-62.123,27.868-62.123,62.123c0,8.284,6.716,15,15,15c8.284,0,15-6.716,15-15
		c0-17.713,14.41-32.123,32.123-32.123c8.284,0,15-6.716,15-15C216.857,158.733,210.142,152.018,201.857,152.018z"/>
</g>
<g>
</g>
<g>
</g>
<g>
</g>
<g>
</g>
<g>
</g>
<g>
</g>
<g>
</g>
<g>
</g>
<g>
</g>
<g>
</g>
<g>
</g>
<g>
</g>
<g>
</g>
<g>
</g>
<g>
</g>
</svg>
